<?xml version="1.0" encoding="iso-8859-1"?>
<!-- Generator: Adobe Illustrator 16.0.0, SVG Export Plug-In . SVG Version: 6.00 Build 0)  -->
<!DOCTYPE svg PUBLIC "-//W3C//DTD SVG 1.1//EN" "http://www.w3.org/Graphics/SVG/1.1/DTD/svg11.dtd">
<svg version="1.1" id="Capa_1" xmlns="http://www.w3.org/2000/svg" xmlns:xlink="http://www.w3.org/1999/xlink" x="0px" y="0px"
	 width="9px" height="10px" viewBox="0 0 611.993 611.993" style="enable-background:new 0 0 611.993 611.993;"
	 xml:space="preserve">
<g>
	<g>
		<path d="M200.66,449.687c-20.151-41.515-32.184-86.119-52.537-127.503c-19.258-39.165-44.824-76.056-57.024-118.155
			c0.678-0.393,1.143-1.083,1.006-2.13c-1.435-11.2-4.172-22.133-7.635-32.88c-2.292-7.105-4.743-15.628-8.838-22.459
			c8.79-1.661,17.55-5.689,19.187-15.14c1.756-10.129-5.243-19.692-12.622-25.822c-8.236-6.844-19.181-11.415-29.958-8.927
			c-9.569,2.22-14.765,10.117-17.538,18.901c-4.523-5.82-10.67-9.909-18.317-6.469c-8.808,3.958-13.057,15.479-14.997,24.186
			c-1.946,8.719-2.851,21.246,4.314,28c8.933,8.415,21.454,0.024,29.131-6.505c1.649,8.189,5.695,16.289,8.921,23.888
			c3.976,9.361,8.207,18.306,14.283,26.519c0.006,0.006,0.012,0.006,0.012,0.006c12.67,46.669,35.261,89.666,54.638,133.824
			c19.389,44.187,28.268,92.719,54.191,134.002c-8.713,1.571-17.205,5.672-21.115,13.997c-3.642,7.755-0.595,16.193,5.058,22.055
			c5.059,5.243,12.902,8.284,20.073,6.351c7.07-1.904,10.23-8.386,11.48-15.116c6.916,3.886,14.557,5.32,22.513,1.815
			c8.927-3.935,14.426-14.062,17.104-22.942c2.357-7.819,3.083-18.085-1.862-25.102C215.604,447.67,207.504,447.122,200.66,449.687z
			"/>
		<path d="M611.314,173.333c-1.499-8.409-6.504-17.425-14.557-21.079c-7.843-3.559-15.634-1.095-22.18,3.475
			c-0.167-11.307-2.208-24.382-12.146-29.506c-9.063-4.677-19.228,1.345-25.607,7.766c-6.963,7.005-12.158,17.092-10.427,27.155
			c1.904,11.081,14.688,15.146,24.811,13.854c-13.729,47.604-33.184,93.201-51.103,139.329
			c-17.479,44.984-37.332,94.879-39.468,143.744c-1.488-5.678-11.1-4.303-15.718-0.964c-0.476-3.856-1.689-7.534-3.897-10.611
			c-5.772-8.034-15.979-8.236-24.668-5.249c0.232-0.72,0.292-1.518-0.054-2.434c-7.867-20.681-20.395-40.569-31.642-59.529
			c-11.111-18.729-24.46-41.206-43.61-52.781c-16.949-10.242-31.613-4.374-38.32,13.324
			c-13.128,34.672-29.917,67.813-43.146,102.426c-5.404-3.434-13.241-4.017-18.597-1.737c-7.153,3.041-9.974,11.599-10.438,18.71
			c-0.452,6.945,1.69,14.789,7.618,18.925c2.666,1.856,5.493,2.19,8.248,1.619c-1.333,5.242-1.446,10.599,1.19,15.288
			c4.047,7.195,13.14,7.909,20.436,6.897c14.312-1.976,36.534-12.61,37.534-29.273c0.631-10.552-9.855-16.289-19.104-19.401
			c17.515-24.12,26.584-53.555,41.468-79.358c17.71,23.18,31.737,48.793,47.698,73.157c-6.403-0.904-12.95,1.304-16.49,7.695
			c-4.601,8.302-1.863,18.758,1.743,26.852c3.249,7.278,9.516,15.997,18.157,16.765c8.147,0.72,12.462-6.439,14.807-13.789
			c6.963,7.915,15.896,14.099,26.977,12.301c9.635-1.565,16.348-10.158,20.299-18.645c0.375,1.63,0.81,3.226,1.31,4.701
			c2.31,6.861,7.111,15.276,14.943,16.609c5.612,0.952,10.046-1.773,13.491-5.808c1.732,8.236,5.535,15.586,14.283,19.097
			c10.516,4.22,22.733-2.154,30.833-8.504c7.992-6.261,15.996-17.08,14.104-27.828c-2.148-12.212-15.206-16.021-26.274-17.187
			c7.956-42.641,22.816-83.138,37.421-123.957c15.586-43.562,27.357-89.095,37.546-134.294c8.7,3.618,19.056,4.41,26.44-2.22
			C612.177,192.621,612.844,181.885,611.314,173.333z"/>
	</g>
</g>
<g>
</g>
<g>
</g>
<g>
</g>
<g>
</g>
<g>
</g>
<g>
</g>
<g>
</g>
<g>
</g>
<g>
</g>
<g>
</g>
<g>
</g>
<g>
</g>
<g>
</g>
<g>
</g>
<g>
</g>
</svg>
